<svg xmlns="http://www.w3.org/2000/svg" viewBox="0 0 893.44 131"><defs><style>.cls-1{isolation:isolate;}.cls-2{opacity:0.5;mix-blend-mode:overlay;}.cls-3{fill:#00d417;}.cls-4{fill:#0600d7;}.cls-5{fill:#fff97c;}.cls-6{fill:#ef2800;}.cls-7{fill:#fff;}</style></defs><title>Title 1</title><g class="cls-1"><g id="Layer_2" data-name="Layer 2"><g id="Layer_1-2" data-name="Layer 1"><path d="M187.62,100.81H169V7.65h18.65V44.94h37.22V7.65h18.64v93.16H224.84V63.58H187.62Z"/><path d="M285.52,83.79a10.86,10.86,0,0,0,2.07.42c.7.06,1.39.1,2.08.1a17.44,17.44,0,0,0,5-.72,18.16,18.16,0,0,0,4.51-2A16.9,16.9,0,0,0,303,78.3,17.15,17.15,0,0,0,305.65,74l13,13.06A34.8,34.8,0,0,1,313,93.4,35.87,35.87,0,0,1,306,98.14a34.65,34.65,0,0,1-7.86,3,35.72,35.72,0,0,1-8.48,1,35.16,35.16,0,0,1-25.11-10.33,35.79,35.79,0,0,1-7.63-11.6,38.19,38.19,0,0,1-2.79-14.78,39.45,39.45,0,0,1,2.79-15.07,34,34,0,0,1,18.94-19.1,36,36,0,0,1,13.8-2.66,35.1,35.1,0,0,1,8.51,1,35.83,35.83,0,0,1,7.9,3,36,36,0,0,1,12.7,11.1Zm9.09-36.58a10.41,10.41,0,0,0-2.44-.58,22.35,22.35,0,0,0-2.5-.13,17.68,17.68,0,0,0-6.85,1.33,16.46,16.46,0,0,0-5.59,3.8,18,18,0,0,0-3.73,5.94,21.29,21.29,0,0,0-1.37,7.83c0,.65,0,1.39.1,2.21a24.49,24.49,0,0,0,.33,2.5,24.93,24.93,0,0,0,.55,2.44,9.13,9.13,0,0,0,.84,2.08Z"/><path d="M344.44,127.31V109.45l9.87.13a14.8,14.8,0,0,0,5-.85,17.36,17.36,0,0,0,8.06-5.88,19,19,0,0,0,2.53-4.45Q367,99.65,364,100.87a16,16,0,0,1-6.08,1.24,32,32,0,0,1-12.08-2.28,29.32,29.32,0,0,1-16.6-16.66,35.69,35.69,0,0,1-2.43-13.48V31.23h17.67V69.69a17.67,17.67,0,0,0,1.07,6.46,13.37,13.37,0,0,0,2.89,4.62,11.66,11.66,0,0,0,4.25,2.76,15,15,0,0,0,5.23.91,11.13,11.13,0,0,0,5.17-1.27,14.36,14.36,0,0,0,4.25-3.35,15.69,15.69,0,0,0,2.86-4.71,14.67,14.67,0,0,0,1-5.42V31.23h17.87V92a35.16,35.16,0,0,1-2.86,13.77,35.71,35.71,0,0,1-7.64,11.24,36.35,36.35,0,0,1-11.27,7.6,34.21,34.21,0,0,1-13.77,2.79Z"/><path d="M419.34,127.31V109.45l9.87.13a14.9,14.9,0,0,0,5-.85,17.06,17.06,0,0,0,4.45-2.34,17.25,17.25,0,0,0,3.6-3.54,19,19,0,0,0,2.53-4.45c-1.94.83-3.93,1.65-5.94,2.47a16,16,0,0,1-6.07,1.24,32,32,0,0,1-12.09-2.28,29.35,29.35,0,0,1-16.59-16.66,35.5,35.5,0,0,1-2.44-13.48V31.23h17.67V69.69a17.88,17.88,0,0,0,1.07,6.46,13.52,13.52,0,0,0,2.89,4.62,11.61,11.61,0,0,0,4.26,2.76,14.93,14.93,0,0,0,5.23.91A11.06,11.06,0,0,0,438,83.17a14.53,14.53,0,0,0,4.26-3.35,15.86,15.86,0,0,0,2.85-4.71,14.47,14.47,0,0,0,1-5.42V31.23H464V92a35.16,35.16,0,0,1-2.86,13.77,35.85,35.85,0,0,1-7.63,11.24,36.59,36.59,0,0,1-11.27,7.6,34.25,34.25,0,0,1-13.78,2.79Z"/><path d="M544.72,65.4a37.31,37.31,0,0,1-2.8,14.52,36.23,36.23,0,0,1-7.6,11.63,35.42,35.42,0,0,1-11.27,7.73,35.23,35.23,0,0,1-27.67,0,35.56,35.56,0,0,1-18.94-19.36,37.49,37.49,0,0,1-2.79-14.52,38.11,38.11,0,0,1,2.79-14.68,36.06,36.06,0,0,1,7.63-11.66,35.52,35.52,0,0,1,11.31-7.7,34.45,34.45,0,0,1,13.8-2.79,36.5,36.5,0,0,1,13.87,2.63,33.34,33.34,0,0,1,11.27,7.47,35.28,35.28,0,0,1,7.6,11.63A39.17,39.17,0,0,1,544.72,65.4Zm-17.87,0a20.66,20.66,0,0,0-1.39-7.76,18.64,18.64,0,0,0-3.8-6A16.67,16.67,0,0,0,516,47.83a18.33,18.33,0,0,0-13.71,0,16.26,16.26,0,0,0-5.59,3.83,18.31,18.31,0,0,0-3.73,6,21.07,21.07,0,0,0-1.37,7.76A20,20,0,0,0,493,72.87a18.74,18.74,0,0,0,3.73,6,17.42,17.42,0,0,0,5.59,4,16.28,16.28,0,0,0,6.85,1.47A17.4,17.4,0,0,0,516,82.94a17.11,17.11,0,0,0,5.62-3.83,18.21,18.21,0,0,0,3.8-6A20.73,20.73,0,0,0,526.85,65.4Z"/><path d="M648.85,74.17a27.42,27.42,0,0,1-2.17,10.88A27.84,27.84,0,0,1,631.8,99.93a27.46,27.46,0,0,1-10.88,2.18,27.79,27.79,0,0,1-10-1.82A26.58,26.58,0,0,1,602.34,95a26.71,26.71,0,0,1-8.64,5.33,28.13,28.13,0,0,1-10,1.82,27.46,27.46,0,0,1-10.88-2.18,27.78,27.78,0,0,1-14.87-14.88,27.42,27.42,0,0,1-2.18-10.88V7.65h18.65V74.17a9.38,9.38,0,0,0,.71,3.67,9.18,9.18,0,0,0,2,3,9.05,9.05,0,0,0,3,2,9.54,9.54,0,0,0,7.27,0,9.05,9.05,0,0,0,3-2,9.18,9.18,0,0,0,2-3,9.38,9.38,0,0,0,.71-3.67V7.65h18.65V74.17a9.56,9.56,0,0,0,.71,3.67,9.05,9.05,0,0,0,2,3,8.91,8.91,0,0,0,2.95,2,9.56,9.56,0,0,0,7.28,0,9,9,0,0,0,3-2,9.45,9.45,0,0,0,2-3,9.22,9.22,0,0,0,.74-3.67V7.65h18.58Z"/><path d="M729.93,65.4a37.31,37.31,0,0,1-2.8,14.52,36.23,36.23,0,0,1-7.6,11.63,35.42,35.42,0,0,1-11.27,7.73,35.23,35.23,0,0,1-27.67,0,35.56,35.56,0,0,1-18.94-19.36,37.49,37.49,0,0,1-2.79-14.52,38.11,38.11,0,0,1,2.79-14.68,36.06,36.06,0,0,1,7.63-11.66,35.52,35.52,0,0,1,11.31-7.7,34.45,34.45,0,0,1,13.8-2.79,36.5,36.5,0,0,1,13.87,2.63,33.34,33.34,0,0,1,11.27,7.47,35.28,35.28,0,0,1,7.6,11.63A39.17,39.17,0,0,1,729.93,65.4Zm-17.87,0a20.66,20.66,0,0,0-1.39-7.76,18.49,18.49,0,0,0-3.81-6,16.53,16.53,0,0,0-5.61-3.83,18.33,18.33,0,0,0-13.71,0A16.26,16.26,0,0,0,682,51.66a18.31,18.31,0,0,0-3.73,6,21.07,21.07,0,0,0-1.37,7.76,20,20,0,0,0,1.37,7.47,18.74,18.74,0,0,0,3.73,6,17.42,17.42,0,0,0,5.59,4,16.28,16.28,0,0,0,6.85,1.47,17.4,17.4,0,0,0,6.86-1.37,17,17,0,0,0,5.61-3.83,18.07,18.07,0,0,0,3.81-6A20.73,20.73,0,0,0,712.06,65.4Z"/><path d="M757.47,100.81H739.74V31.23H744l5.85,8.25a31.37,31.37,0,0,1,21-8.12h15.66V49H770.92a13.45,13.45,0,0,0-5.26,1,13.15,13.15,0,0,0-7.15,7.15,13.45,13.45,0,0,0-1,5.26Z"/><path d="M812.69,100.81H794.82V3.56h17.87Z"/><path d="M893.44,100.81h-4.29l-6.89-9.55a57,57,0,0,1-5.35,4.25A40.56,40.56,0,0,1,871,99a36.52,36.52,0,0,1-6.4,2.3,26.73,26.73,0,0,1-6.66.85,35,35,0,0,1-25.11-10.43,36.14,36.14,0,0,1-7.63-11.63,37.82,37.82,0,0,1-2.79-14.65,37.87,37.87,0,0,1,2.79-14.61,36.35,36.35,0,0,1,7.63-11.7,35.28,35.28,0,0,1,11.31-7.73,34.45,34.45,0,0,1,13.8-2.79,31.33,31.33,0,0,1,4.84.39,25,25,0,0,1,4.88,1.27,20.19,20.19,0,0,1,4.45,2.3,13.43,13.43,0,0,1,3.5,3.51V3.56h17.87ZM875.57,65.4a18.5,18.5,0,0,0-1.39-7.05,20.39,20.39,0,0,0-3.8-6,19.09,19.09,0,0,0-5.62-4.22,15.29,15.29,0,0,0-6.86-1.59,18,18,0,0,0-6.85,1.3,16.14,16.14,0,0,0-5.59,3.73,17.56,17.56,0,0,0-3.73,5.95,21.71,21.71,0,0,0-1.37,7.92,19.86,19.86,0,0,0,5.1,13.32,17.41,17.41,0,0,0,5.59,4.09,16,16,0,0,0,6.85,1.5,15.29,15.29,0,0,0,6.86-1.59,19.12,19.12,0,0,0,5.62-4.23,20.27,20.27,0,0,0,3.8-6A18.42,18.42,0,0,0,875.57,65.4Z"/><g class="cls-2"><circle class="cls-3" cx="82.6" cy="48.4" r="48.4"/></g><g class="cls-2"><circle class="cls-4" cx="48.78" cy="48.4" r="48.4"/></g><g class="cls-2"><circle class="cls-5" cx="48.4" cy="82.6" r="48.4"/></g><g class="cls-2"><circle class="cls-6" cx="82.99" cy="82.6" r="48.4"/></g><g class="cls-2"><path class="cls-3" d="M95.54,35.85A48.49,48.49,0,0,1,128.08,65,48.42,48.42,0,0,0,65.69,3,48.52,48.52,0,0,1,95.54,35.85Z"/></g><g class="cls-2"><path class="cls-4" d="M35.85,35.85A48.51,48.51,0,0,1,65.69,3,48.42,48.42,0,0,0,3.31,65,48.49,48.49,0,0,1,35.85,35.85Z"/></g><g class="cls-2"><path class="cls-5" d="M36.24,95.15A48.51,48.51,0,0,1,3.31,65a48.41,48.41,0,0,0,62.38,62.82A48.5,48.5,0,0,1,36.24,95.15Z"/></g><g class="cls-2"><path class="cls-6" d="M128.08,65A48.53,48.53,0,0,1,95.15,95.15a48.5,48.5,0,0,1-29.46,32.66A48.42,48.42,0,0,0,128.08,65Z"/></g><path class="cls-7" d="M93.87,66A48.54,48.54,0,0,0,65.69,37.39,48.55,48.55,0,0,0,37.52,66,48.5,48.5,0,0,0,65.69,93.75,48.49,48.49,0,0,0,93.87,66Z"/></g></g></g></svg>