<svg xmlns="http://www.w3.org/2000/svg" xmlns:xlink="http://www.w3.org/1999/xlink" viewBox="0 0 777 154"><defs><style>.cls-1{fill:none;}.cls-2{clip-path:url(#clip-path);}.cls-3{opacity:0.5;fill:url(#linear-gradient);}</style><clipPath id="clip-path"><path class="cls-1" d="M47.42,117.58H28.78V24.42H47.42V61.71H84.65V24.42h18.64v93.16H84.65V80.36H47.42Zm97.9-17a9.6,9.6,0,0,0,2.08.42,20.69,20.69,0,0,0,2.08.1,17.67,17.67,0,0,0,5-.71A18.26,18.26,0,0,0,159,98.32a17.19,17.19,0,0,0,6.46-7.5l13,13.05a34.75,34.75,0,0,1-5.68,6.3,35.78,35.78,0,0,1-7,4.75,34.62,34.62,0,0,1-7.86,3,35.72,35.72,0,0,1-8.48,1,35.12,35.12,0,0,1-25.11-10.33A35.53,35.53,0,0,1,116.74,97a38,38,0,0,1-2.8-14.77,39.32,39.32,0,0,1,2.8-15.08A34.06,34.06,0,0,1,135.67,48a35.81,35.81,0,0,1,13.81-2.67,35.1,35.1,0,0,1,8.51,1,35.56,35.56,0,0,1,7.89,3,36.32,36.32,0,0,1,7,4.77,35.42,35.42,0,0,1,5.71,6.34ZM154.42,64A10.19,10.19,0,0,0,152,63.4a22.47,22.47,0,0,0-2.5-.13,17.83,17.83,0,0,0-6.85,1.33A16.37,16.37,0,0,0,137,68.4a18,18,0,0,0-3.74,5.95,21.26,21.26,0,0,0-1.36,7.83c0,.65,0,1.38.1,2.2a24.62,24.62,0,0,0,.32,2.51c.15.84.34,1.65.55,2.43a9.14,9.14,0,0,0,.85,2.08Zm49.82,80.1V126.22l9.88.13a15,15,0,0,0,5-.84,17.26,17.26,0,0,0,8-5.88,19.42,19.42,0,0,0,2.54-4.45q-2.93,1.23-6,2.47a16,16,0,0,1-6.07,1.23,32.12,32.12,0,0,1-12.08-2.27A29.38,29.38,0,0,1,189,99.94a35.46,35.46,0,0,1-2.44-13.48V48h17.67V86.46a17.94,17.94,0,0,0,1.07,6.47,13.34,13.34,0,0,0,2.9,4.61,11.66,11.66,0,0,0,4.25,2.76,14.74,14.74,0,0,0,5.23.91,10.94,10.94,0,0,0,5.16-1.27,14.41,14.41,0,0,0,4.26-3.34A16.37,16.37,0,0,0,230,91.89a14.72,14.72,0,0,0,1-5.43V48h17.86v60.8A34.77,34.77,0,0,1,246,122.58a35.57,35.57,0,0,1-7.63,11.24,36.3,36.3,0,0,1-11.27,7.6,34.25,34.25,0,0,1-13.77,2.8Zm74.9,0V126.22l9.88.13a15,15,0,0,0,5-.84,17.36,17.36,0,0,0,8.06-5.88,19.38,19.38,0,0,0,2.53-4.45l-5.94,2.47a16,16,0,0,1-6.08,1.23,32.16,32.16,0,0,1-12.08-2.27,29.38,29.38,0,0,1-16.6-16.67,35.65,35.65,0,0,1-2.44-13.48V48h17.67V86.46a17.72,17.72,0,0,0,1.08,6.47,13.18,13.18,0,0,0,2.89,4.61,11.66,11.66,0,0,0,4.25,2.76,14.78,14.78,0,0,0,5.23.91,11,11,0,0,0,5.17-1.27A14.49,14.49,0,0,0,302,96.6a16.15,16.15,0,0,0,2.86-4.71,14.72,14.72,0,0,0,1-5.43V48h17.86v60.8a34.94,34.94,0,0,1-2.85,13.77,35.76,35.76,0,0,1-7.64,11.24,36.18,36.18,0,0,1-11.27,7.6,34.25,34.25,0,0,1-13.77,2.8ZM404.52,82.18a37.47,37.47,0,0,1-2.79,14.51,36.29,36.29,0,0,1-7.6,11.63,35.53,35.53,0,0,1-11.27,7.73,35.26,35.26,0,0,1-27.68,0,35.59,35.59,0,0,1-18.93-19.36,37.3,37.3,0,0,1-2.8-14.51,38,38,0,0,1,2.8-14.69,35.9,35.9,0,0,1,7.63-11.66,35.45,35.45,0,0,1,11.3-7.69A34.3,34.3,0,0,1,369,45.34,36.5,36.5,0,0,1,382.86,48a33.74,33.74,0,0,1,11.27,7.47,35.54,35.54,0,0,1,7.6,11.63A39.41,39.41,0,0,1,404.52,82.18Zm-17.86,0a20.72,20.72,0,0,0-1.4-7.77,18.42,18.42,0,0,0-3.8-6,16.36,16.36,0,0,0-5.62-3.84,18.33,18.33,0,0,0-13.71,0,16.11,16.11,0,0,0-5.58,3.84,18.29,18.29,0,0,0-3.74,6,21.12,21.12,0,0,0-1.36,7.77,20.12,20.12,0,0,0,1.36,7.47,18.83,18.83,0,0,0,3.74,6,17.56,17.56,0,0,0,5.58,4,16.47,16.47,0,0,0,6.86,1.46,17.52,17.52,0,0,0,6.85-1.36,16.94,16.94,0,0,0,5.62-3.84,17.9,17.9,0,0,0,3.8-6A20.77,20.77,0,0,0,386.66,82.18Zm122,8.77a27.46,27.46,0,0,1-2.18,10.88,27.72,27.72,0,0,1-14.87,14.87,27.47,27.47,0,0,1-10.89,2.18,27.87,27.87,0,0,1-10-1.82,26.65,26.65,0,0,1-8.6-5.33,26.65,26.65,0,0,1-8.65,5.33,28.07,28.07,0,0,1-10,1.82,27.46,27.46,0,0,1-10.88-2.18,27.78,27.78,0,0,1-14.88-14.87A27.45,27.45,0,0,1,415.57,91V24.42h18.64V91a9.42,9.42,0,0,0,.72,3.67,8.93,8.93,0,0,0,2,3,9.2,9.2,0,0,0,2.95,2,9.69,9.69,0,0,0,7.28,0,9.25,9.25,0,0,0,4.94-5,9.6,9.6,0,0,0,.71-3.67V24.42h18.64V91a9.42,9.42,0,0,0,.72,3.67,9.32,9.32,0,0,0,15.17,3,9.66,9.66,0,0,0,2-3,9.09,9.09,0,0,0,.75-3.67V24.42h18.58Zm81.07-8.77a37.47,37.47,0,0,1-2.79,14.51,36.29,36.29,0,0,1-7.6,11.63,35.53,35.53,0,0,1-11.27,7.73,35.26,35.26,0,0,1-27.68,0,35.59,35.59,0,0,1-18.93-19.36,37.3,37.3,0,0,1-2.8-14.51,38,38,0,0,1,2.8-14.69,35.9,35.9,0,0,1,7.63-11.66,35.45,35.45,0,0,1,11.3-7.69,34.3,34.3,0,0,1,13.81-2.8A36.54,36.54,0,0,1,568.07,48a33.74,33.74,0,0,1,11.27,7.47,35.54,35.54,0,0,1,7.6,11.63A39.41,39.41,0,0,1,589.73,82.18Zm-17.86,0a20.72,20.72,0,0,0-1.4-7.77,18.42,18.42,0,0,0-3.8-6,16.36,16.36,0,0,0-5.62-3.84,18.33,18.33,0,0,0-13.71,0,16.11,16.11,0,0,0-5.58,3.84,18.29,18.29,0,0,0-3.74,6,21.12,21.12,0,0,0-1.36,7.77A20.12,20.12,0,0,0,538,89.65a18.83,18.83,0,0,0,3.74,6,17.56,17.56,0,0,0,5.58,4,16.47,16.47,0,0,0,6.86,1.46,17.52,17.52,0,0,0,6.85-1.36,16.94,16.94,0,0,0,5.62-3.84,17.9,17.9,0,0,0,3.8-6A20.77,20.77,0,0,0,571.87,82.18Zm45.41,35.4H599.54V48h4.29l5.85,8.25a31.32,31.32,0,0,1,21-8.12h15.66V65.81H630.72A13.2,13.2,0,0,0,618.32,74a13.31,13.31,0,0,0-1,5.26Zm55.22,0H654.63V20.33H672.5Zm80.74,0H749L742.07,108a56.92,56.92,0,0,1-5.36,4.26,39.89,39.89,0,0,1-5.94,3.44,37.7,37.7,0,0,1-6.4,2.31,26.78,26.78,0,0,1-6.66.84,35,35,0,0,1-25.11-10.43A35.87,35.87,0,0,1,685,96.82a39.62,39.62,0,0,1,0-29.26,36.25,36.25,0,0,1,7.63-11.69,35.24,35.24,0,0,1,11.3-7.73,34.3,34.3,0,0,1,13.81-2.8,31.43,31.43,0,0,1,4.84.39A24.75,24.75,0,0,1,727.42,47a20.19,20.19,0,0,1,4.45,2.3,13.62,13.62,0,0,1,3.51,3.51V20.33h17.86Zm-17.86-35.4a18.43,18.43,0,0,0-1.4-7.05,20.14,20.14,0,0,0-3.8-6,18.7,18.7,0,0,0-5.62-4.23,15.25,15.25,0,0,0-6.85-1.59,18.19,18.19,0,0,0-6.85,1.3,16.07,16.07,0,0,0-5.59,3.74,17.44,17.44,0,0,0-3.74,5.94,21.73,21.73,0,0,0-1.36,7.93,19.73,19.73,0,0,0,5.1,13.31,17.33,17.33,0,0,0,5.59,4.1,16.11,16.11,0,0,0,6.85,1.49,15.25,15.25,0,0,0,6.85-1.59,18.83,18.83,0,0,0,5.62-4.22,20.32,20.32,0,0,0,3.8-6A18.42,18.42,0,0,0,735.38,82.18Z"/></clipPath><linearGradient id="linear-gradient" y1="77" x2="777" y2="77" gradientUnits="userSpaceOnUse"><stop offset="0" stop-color="blue"/><stop offset="0.38" stop-color="lime"/><stop offset="0.66" stop-color="#ff0"/><stop offset="1" stop-color="red"/></linearGradient></defs><title>Title</title><g id="Layer_2" data-name="Layer 2"><g id="Layer_1-2" data-name="Layer 1"><g class="cls-2"><rect class="cls-3" width="777" height="154" rx="17.4" ry="17.4"/></g></g></g></svg>